<svg width="48" height="48" viewBox="0 0 48 48" fill="none" xmlns="http://www.w3.org/2000/svg">
<rect width="48" height="48" fill="white"/>
<path d="M40 40.5C40 41.1974 39.6745 41.9454 38.913 42.7169C38.1473 43.4927 36.9898 44.2373 35.4804 44.8842C32.4653 46.1763 28.2303 47 23.5 47C18.7697 47 14.5347 46.1763 11.5196 44.8842C10.0102 44.2373 8.85267 43.4927 8.08698 42.7169C7.32554 41.9454 7 41.1974 7 40.5C7 39.8026 7.32554 39.0546 8.08698 38.2831C8.85267 37.5073 10.0102 36.7627 11.5196 36.1158C14.5347 34.8237 18.7697 34 23.5 34C28.2303 34 32.4653 34.8237 35.4804 36.1158C36.9898 36.7627 38.1473 37.5073 38.913 38.2831C39.6745 39.0546 40 39.8026 40 40.5Z" stroke="#152C5B" stroke-width="2"/>
<path d="M36.5 12.095C36.5 13.2912 36.1331 15.6441 35.4043 18.5942C34.6852 21.505 33.644 24.8772 32.3612 28.0706C31.0723 31.279 29.5694 34.2319 27.9511 36.3552C26.2796 38.5481 24.7622 39.5 23.5 39.5C22.2378 39.5 20.7204 38.5481 19.0489 36.3552C17.4306 34.2319 15.9277 31.279 14.6388 28.0706C13.356 24.8771 12.3148 21.505 11.5957 18.5942C10.8669 15.6441 10.5 13.2912 10.5 12.095C10.5 9.8741 11.8307 7.22853 14.2428 5.08697C16.6261 2.97101 19.9058 1.5 23.5 1.5C27.0942 1.5 30.3739 2.97101 32.7572 5.08697C35.1693 7.22853 36.5 9.8741 36.5 12.095Z" fill="white" stroke="#152C5B" stroke-width="3"/>
<path d="M28 13.5C28 15.9853 25.9853 18 23.5 18C21.0147 18 19 15.9853 19 13.5C19 11.0147 21.0147 9 23.5 9C25.9853 9 28 11.0147 28 13.5Z" stroke="#FF498B" stroke-width="2"/>
</svg>
