<svg width="48" height="48" viewBox="0 0 48 48" fill="none" xmlns="http://www.w3.org/2000/svg">
<rect width="48" height="48" fill="white"/>
<mask id="path-1-inside-1" fill="white">
<path fill-rule="evenodd" clip-rule="evenodd" d="M17.6233 5C16.9257 5 16.2785 5.36352 15.9155 5.95926L12.8438 11H8C3.58172 11 0 14.5817 0 19V31C0 35.4183 3.58172 39 8 39H40C44.4183 39 48 35.4183 48 31V19C48 14.5817 44.4183 11 40 11H33.3938L30.4846 5.99495C30.1265 5.37899 29.4679 5 28.7554 5H17.6233Z"/>
</mask>
<path d="M15.9155 5.95926L18.4773 7.52037V7.52037L15.9155 5.95926ZM12.8438 11V14H14.5287L15.4056 12.5611L12.8438 11ZM33.3938 11L30.8001 12.5076L31.6675 14H33.3938V11ZM30.4846 5.99495L27.8909 7.50253V7.50253L30.4846 5.99495ZM18.4773 7.52037C18.2958 7.81824 17.9721 8 17.6233 8V2C15.8793 2 14.2612 2.9088 13.3536 4.39815L18.4773 7.52037ZM15.4056 12.5611L18.4773 7.52037L13.3536 4.39815L10.2819 9.43889L15.4056 12.5611ZM8 14H12.8438V8H8V14ZM3 19C3 16.2386 5.23858 14 8 14V8C1.92487 8 -3 12.9249 -3 19H3ZM3 31V19H-3V31H3ZM8 36C5.23858 36 3 33.7614 3 31H-3C-3 37.0751 1.92487 42 8 42V36ZM40 36H8V42H40V36ZM45 31C45 33.7614 42.7614 36 40 36V42C46.0751 42 51 37.0751 51 31H45ZM45 19V31H51V19H45ZM40 14C42.7614 14 45 16.2386 45 19H51C51 12.9249 46.0751 8 40 8V14ZM33.3938 14H40V8H33.3938V14ZM27.8909 7.50253L30.8001 12.5076L35.9874 9.49242L33.0782 4.48737L27.8909 7.50253ZM28.7554 8C28.3992 8 28.0699 7.8105 27.8909 7.50253L33.0783 4.48737C32.1832 2.94749 30.5366 2 28.7554 2V8ZM17.6233 8H28.7554V2H17.6233V8Z" fill="#152C5B" mask="url(#path-1-inside-1)"/>
<path d="M41 18C39.9029 18 35.2095 18 33 18" stroke="#152C5B" stroke-width="3" stroke-linecap="round"/>
<path d="M30.5 26C30.5 29.5899 27.5899 32.5 24 32.5C20.4101 32.5 17.5 29.5899 17.5 26C17.5 22.4101 20.4101 19.5 24 19.5C27.5899 19.5 30.5 22.4101 30.5 26Z" stroke="#FF498B" stroke-width="3"/>
</svg>
