<svg width="48" height="48" viewBox="0 0 48 48" fill="none" xmlns="http://www.w3.org/2000/svg">
<rect width="48" height="48" fill="white"/>
<path d="M7.68243 17.8749C7.73947 17.6542 7.93857 17.5 8.16653 17.5H39.3701C39.6057 17.5 39.8093 17.6644 39.8589 17.8947L42.0123 27.8947C42.0793 28.2061 41.842 28.5 41.5235 28.5H5.5825C5.25558 28.5 5.01661 28.1914 5.0984 27.8749L7.68243 17.8749Z" stroke="#152C5B" stroke-width="3"/>
<path d="M35 29.5C35 28.6716 35.6716 28 36.5 28C37.3284 28 38 28.6716 38 29.5V36.5C38 37.3284 37.3284 38 36.5 38C35.6716 38 35 37.3284 35 36.5V29.5Z" stroke="#152C5B" stroke-width="2"/>
<path d="M9 29.5C9 28.6716 9.67157 28 10.5 28C11.3284 28 12 28.6716 12 29.5V36.5C12 37.3284 11.3284 38 10.5 38C9.67157 38 9 37.3284 9 36.5V29.5Z" stroke="#152C5B" stroke-width="2"/>
<line x1="30.5" y1="11" x2="30.5" y2="17" stroke="#152C5B" stroke-width="3"/>
<line x1="16.5" y1="11" x2="16.5" y2="17" stroke="#152C5B" stroke-width="3"/>
<path d="M27 5H34V8C34 9.65685 32.6569 11 31 11H30C28.3431 11 27 9.65685 27 8V5Z" stroke="#FF498B" stroke-width="2"/>
<path d="M13 5H20V8C20 9.65685 18.6569 11 17 11H16C14.3431 11 13 9.65685 13 8V5Z" stroke="#FF498B" stroke-width="2"/>
</svg>
