<svg width="48" height="48" viewBox="0 0 48 48" fill="none" xmlns="http://www.w3.org/2000/svg">
<rect width="48" height="48" fill="#152C5B"/>
<path d="M37.9949 7.61713C41.5848 7.62885 44.485 10.5485 44.4728 14.1383L44.3941 37.2606C44.3819 40.8504 41.4618 43.7511 37.872 43.7393L10.0051 43.6483C6.41523 43.6366 3.515 40.717 3.52722 37.1271L3.60591 14.0049C3.61812 10.415 6.53816 7.5144 10.128 7.52612L37.9949 7.61713Z" stroke="white" stroke-width="3"/>
<path d="M35.7273 22.5367C37.108 22.5412 38.2234 23.6641 38.2187 25.0448L38.2005 30.4135C38.1958 31.7942 37.0727 32.9098 35.692 32.9053L28.463 32.8817C27.0823 32.8772 25.9668 31.7543 25.9715 30.3736L25.9898 25.0049C25.9945 23.6242 27.1176 22.5085 28.4983 22.5131L35.7273 22.5367Z" stroke="white" stroke-width="3"/>
<path d="M34.529 2.50612C34.7381 2.50681 34.907 2.67683 34.9063 2.88589L34.8879 8.29176C34.8871 8.50082 34.7171 8.66974 34.508 8.66905C34.299 8.66837 34.1301 8.49835 34.1308 8.28929L34.1492 2.88341C34.1499 2.67436 34.32 2.50544 34.529 2.50612Z" stroke="white" stroke-width="1.87853"/>
<path d="M13.0919 2.50612C13.301 2.50681 13.4699 2.67683 13.4692 2.88589L13.4508 8.29176C13.45 8.50082 13.28 8.66974 13.0709 8.66905C12.8619 8.66837 12.693 8.49835 12.6937 8.28929L12.7121 2.88341C12.7128 2.67436 12.8829 2.50544 13.0919 2.50612Z" stroke="white" stroke-width="1.87853"/>
<path d="M43.0701 15.9699C43.0695 16.1578 42.9166 16.3097 42.7287 16.3091L4.86609 16.1864C4.67819 16.1858 4.52638 16.033 4.52701 15.8451C4.52765 15.6572 4.68049 15.5053 4.86839 15.506L42.731 15.6286C42.9189 15.6292 43.0707 15.782 43.0701 15.9699Z" stroke="white" stroke-width="1.84023"/>
<path d="M19.3942 22.5367C20.7749 22.5412 21.8904 23.6641 21.8857 25.0448L21.8674 30.4135C21.8627 31.7942 20.7397 32.9098 19.359 32.9053L12.13 32.8817C10.7493 32.8772 9.6338 31.7543 9.63849 30.3736L9.65677 25.0049C9.66146 23.6242 10.7846 22.5085 12.1653 22.5131L19.3942 22.5367Z" stroke="white" stroke-width="3"/>
</svg>
