<svg width="48" height="48" viewBox="0 0 48 48" fill="none" xmlns="http://www.w3.org/2000/svg">
<rect width="48" height="48" fill="white"/>
<path d="M4.5 16C4.5 14.6193 5.61929 13.5 7 13.5H41C42.3807 13.5 43.5 14.6193 43.5 16V31.5H4.5V16Z" stroke="#152C5B" stroke-width="3"/>
<line x1="4" y1="25.5" x2="44" y2="25.5" stroke="#152C5B" stroke-width="3"/>
<line x1="18" y1="20" x2="31" y2="20" stroke="#FF498B" stroke-width="2"/>
<path d="M35.9117 34V34C35.8153 38.1042 37.0528 42.1289 39.4382 45.4701V45.4701" stroke="#152C5B" stroke-width="2"/>
<path d="M30.9117 34V34C30.8153 38.1042 32.0528 42.1289 34.4382 45.4701V45.4701" stroke="#152C5B" stroke-width="2"/>
<path d="M14 45.4109V45.4109C16.4398 42.1092 17.7429 38.1052 17.7136 34V34" stroke="#152C5B" stroke-width="2"/>
<path d="M9 45.4109V45.4109C11.4398 42.1092 12.7429 38.1052 12.7136 34V34" stroke="#152C5B" stroke-width="2"/>
</svg>
