<svg width="48" height="48" viewBox="0 0 48 48" fill="none" xmlns="http://www.w3.org/2000/svg">
<g clip-path="url(#clip0)">
<rect width="48" height="48" fill="white"/>
<path d="M5 48C5.00358 46.8031 5.01892 41.6831 5.02614 39.2728" stroke="#152C5B" stroke-width="3" stroke-linecap="round"/>
<path d="M42 48C42.0036 46.8031 42.0189 41.6831 42.0261 39.2728" stroke="#152C5B" stroke-width="3" stroke-linecap="round"/>
<path d="M6 44.7273C10.8 44.7273 31.3333 44.7273 41 44.7273" stroke="#152C5B" stroke-width="3" stroke-linecap="round"/>
<path d="M1.5 24.7273C1.5 23.3466 2.61929 22.2273 4 22.2273H44C45.3807 22.2273 46.5 23.3466 46.5 24.7273V38.8637H1.5V24.7273Z" stroke="#152C5B" stroke-width="3"/>
<path d="M11.5 13C11.5 11.6193 12.6193 10.5 14 10.5H19C20.3807 10.5 21.5 11.6193 21.5 13V17.5H11.5V13Z" stroke="#FF498B" stroke-width="3"/>
<path d="M25.5 13C25.5 11.6193 26.6193 10.5 28 10.5H33C34.3807 10.5 35.5 11.6193 35.5 13V17.5H25.5V13Z" stroke="#FF498B" stroke-width="3"/>
<path d="M7.5 10C7.5 5.30558 11.3056 1.5 16 1.5H31C35.6944 1.5 39.5 5.30558 39.5 10V21.5H7.5V10Z" stroke="#152C5B" stroke-width="3"/>
</g>
<defs>
<clipPath id="clip0">
<rect width="48" height="48" fill="white"/>
</clipPath>
</defs>
</svg>
