<svg width="48" height="48" viewBox="0 0 48 48" fill="none" xmlns="http://www.w3.org/2000/svg">
<rect width="48" height="48" fill="white"/>
<mask id="path-1-inside-1" fill="white">
<path d="M36.3918 1.08418C37.4964 1.08787 38.3888 1.98628 38.3852 3.09084L38.2483 44.1499C38.2446 45.2545 37.3462 46.1469 36.2416 46.1433L12.9898 46.0658C11.8852 46.0621 10.9928 45.1637 10.9965 44.0591L11.1333 2.99999C11.137 1.89542 12.0354 1.00298 13.14 1.00667L36.3918 1.08418Z"/>
</mask>
<path d="M36.3918 1.08418C37.4964 1.08787 38.3888 1.98628 38.3852 3.09084L38.2483 44.1499C38.2446 45.2545 37.3462 46.1469 36.2416 46.1433L12.9898 46.0658C11.8852 46.0621 10.9928 45.1637 10.9965 44.0591L11.1333 2.99999C11.137 1.89542 12.0354 1.00298 13.14 1.00667L36.3918 1.08418Z" stroke="#152C5B" stroke-width="6" mask="url(#path-1-inside-1)"/>
<line x1="20.5" y1="2" x2="20.5" y2="44" stroke="#152C5B" stroke-width="3"/>
<line x1="26.52" y1="16.5084" x2="26.4767" y2="29.5083" stroke="#FF498B" stroke-width="2"/>
</svg>
